<svg width="27" height="27" viewBox="0 0 27 27" fill="none" xmlns="http://www.w3.org/2000/svg">
<path d="M19.4062 10.125H17.7188C16.7906 10.125 16.0312 10.8844 16.0312 11.8125V15.1875C16.0312 16.1156 16.7906 16.875 17.7188 16.875H19.4062C20.3344 16.875 21.0938 16.1156 21.0938 15.1875V11.8125C21.0938 10.8844 20.3344 10.125 19.4062 10.125ZM17.7188 15.1875V11.8125H19.4062V15.1875H17.7188ZM12.6562 16.875H14.3438V10.125H12.6562V16.875Z" fill="#4f39f6"/>
<path d="M9.2812 10.125H7.5937C6.66558 10.125 5.9062 10.8844 5.9062 11.8125V15.1875C5.9062 16.1156 6.66558 16.875 7.5937 16.875H9.2812C10.2093 16.875 10.9687 16.1156 10.9687 15.1875V11.8125C10.9687 10.8844 10.2093 10.125 9.2812 10.125ZM7.5937 15.1875V11.8125H9.2812V15.1875H7.5937ZM13.5 25.3125V23.625C19.0687 23.625 23.625 19.0687 23.625 13.5C23.625 7.93125 19.0687 3.375 13.5 3.375V1.6875C19.9968 1.6875 25.3125 7.00312 25.3125 13.5C25.3125 19.9969 19.9968 25.3125 13.5 25.3125ZM6.9187 5.82187L5.9062 4.47187C6.9187 3.62812 8.09995 2.86875 9.44995 2.44687L10.0406 4.05C8.85933 4.47187 7.84683 5.0625 6.9187 5.82187ZM3.5437 11.8125L1.8562 11.475C2.10933 10.125 2.61558 8.775 3.29058 7.59375L4.72495 8.4375C4.13433 9.45 3.71245 10.6313 3.5437 11.8125ZM4.72495 18.5625L3.29058 19.4062C2.61558 18.225 2.10933 16.875 1.94058 15.525L3.62808 15.2719C3.71245 16.4531 4.13433 17.55 4.72495 18.5625ZM9.9562 22.95L9.36558 24.5531C8.09995 24.0469 6.9187 23.3719 5.9062 22.5281L7.00308 21.2625C7.84683 21.9375 8.85933 22.5281 9.9562 22.95Z" fill="#4f39f6"/>
</svg>
